<svg width="512" height="512" viewBox="0 0 512 512" fill="none" xmlns="http://www.w3.org/2000/svg">
  <defs>
    <radialGradient id="halo" cx="0" cy="0" r="1" gradientUnits="userSpaceOnUse" gradientTransform="translate(256 220) rotate(90) scale(230)">
      <stop offset="0" stop-color="#FDF4FF"/>
      <stop offset="0.55" stop-color="#D6F3FF"/>
      <stop offset="1" stop-color="#B0C7FF"/>
    </radialGradient>
    <linearGradient id="core" x1="166" y1="170" x2="370" y2="360" gradientUnits="userSpaceOnUse">
      <stop offset="0" stop-color="#7B6CFF"/>
      <stop offset="0.5" stop-color="#5CB7D5"/>
      <stop offset="1" stop-color="#6DD3A2"/>
    </linearGradient>
    <linearGradient id="ring" x1="120" y1="120" x2="410" y2="410" gradientUnits="userSpaceOnUse">
      <stop offset="0" stop-color="#1E1B4B" stop-opacity="0.9"/>
      <stop offset="1" stop-color="#3B82F6" stop-opacity="0.35"/>
    </linearGradient>
  </defs>
  <circle cx="256" cy="256" r="232" fill="url(#halo)"/>
  <circle cx="256" cy="256" r="204" fill="white" fill-opacity="0.78" stroke="url(#ring)" stroke-width="10"/>
  <path d="M188 319C188 282 210 253 246 247C244 214 266 184 300 184C337 184 365 215 365 254C365 293 336 322 296 322H232C206 322 188 344 188 368V374C188 389 176 401 161 401C146 401 134 389 134 374V368C134 331 158 301 188 319Z" fill="url(#core)"/>
  <path d="M196 210C208 188 232 174 258 176" stroke="white" stroke-width="10" stroke-linecap="round"/>
  <path d="M228 270C243 256 268 250 294 256" stroke="white" stroke-width="10" stroke-linecap="round"/>
  <path d="M270 222C292 210 318 214 338 230" stroke="white" stroke-width="10" stroke-linecap="round"/>
  <path d="M244 330C250 352 268 370 292 378" stroke="white" stroke-width="10" stroke-linecap="round"/>
  <path d="M292 156C312 136 348 132 374 148C404 166 416 204 402 236C388 268 350 284 318 272" stroke="url(#core)" stroke-width="12" stroke-linecap="round"/>
  <circle cx="374" cy="148" r="10" fill="#7B6CFF"/>
  <circle cx="402" cy="236" r="8" fill="#6DD3A2"/>
</svg>
